<svg width="512" height="512" xmlns="http://www.w3.org/2000/svg" class="ionicon">
 <title>Musical Note</title>

 <g>
  <title>background</title>
  <rect fill="none" id="canvas_background" height="402" width="582" y="-1" x="-1"/>
 </g>
 <g>
  <title>Layer 1</title>
  <path fill="#fffffe" id="svg_1" d="m184.83,479a55.2,55.2 0 0 1 -32.36,-10.55a56.64,56.64 0 0 1 -23.47,-45.87a50.26,50.26 0 0 1 34.14,-47.73l50.86,-17.12a16.25,16.25 0 0 0 11,-15.49l0,-251.24a32.1,32.1 0 0 1 24.09,-31.15l108.39,-28.14a22,22 0 0 1 27.52,21.29l0,57.75a32.09,32.09 0 0 1 -24.2,31.19l-91.65,23.13a16.24,16.24 0 0 0 -12.15,15.84l0,242.09a48.22,48.22 0 0 1 -32.78,45.81l-21.47,7.23a56,56 0 0 1 -17.92,2.96z"/>
 </g>
</svg>