<svg width="512" height="512" xmlns="http://www.w3.org/2000/svg" class="ionicon">
 <title>Pause</title>

 <g>
  <title>background</title>
  <rect fill="none" id="canvas_background" height="402" width="582" y="-1" x="-1"/>
 </g>
 <g>
  <title>Layer 1</title>
  <path fill="#fffffe" id="svg_1" d="m208,432l-48,0a16,16 0 0 1 -16,-16l0,-320a16,16 0 0 1 16,-16l48,0a16,16 0 0 1 16,16l0,320a16,16 0 0 1 -16,16zm144,0l-48,0a16,16 0 0 1 -16,-16l0,-320a16,16 0 0 1 16,-16l48,0a16,16 0 0 1 16,16l0,320a16,16 0 0 1 -16,16z"/>
 </g>
</svg>