<svg width="512" height="512" xmlns="http://www.w3.org/2000/svg" class="ionicon">
 <title>Rainy</title>

 <g>
  <title>background</title>
  <rect fill="none" id="canvas_background" height="514" width="514" y="-1" x="-1"/>
 </g>
 <g>
  <title>Layer 1</title>
  <path id="svg_1" stroke-width="32" stroke-linejoin="round" stroke="#fffffe" fill="none" d="m117.61,162.85a16.07,16.07 0 0 0 13.39,-13.25c12.09,-73.43 65.63,-117.6 128,-117.6c57.93,0 96.62,37.75 112.2,77.74a15.84,15.84 0 0 0 12.2,9.87c50,8.15 91.6,41.54 91.6,99.59c0,59.4 -48.6,100.8 -108,100.8l-234,0c-49.5,0 -90,-24.7 -90,-79.2c0,-48.47 38.67,-72.22 74.61,-77.95z"/>
  <path id="svg_2" d="m144,384l-32,48m112,-48l-64,96m144,-96l-32,48m112,-48l-64,96" stroke-width="32" stroke-linejoin="round" stroke-linecap="round" stroke="#fffffe" fill="none"/>
 </g>
</svg>